<svg width="30" height="30" viewBox="0 0 30 30" fill="none" xmlns="http://www.w3.org/2000/svg">
<circle cx="15" cy="15" r="15" fill="black"/>
<g clip-path="url(#clip0_175_1259)">
<path d="M15.2939 13.7255C16.0695 13.7255 16.8277 13.4955 17.4726 13.0646C18.1175 12.6337 18.6201 12.0212 18.9169 11.3046C19.2138 10.588 19.2914 9.79954 19.1401 9.03883C18.9888 8.27812 18.6153 7.57937 18.0669 7.03093C17.5184 6.48249 16.8197 6.10899 16.0589 5.95768C15.2982 5.80636 14.5097 5.88402 13.7932 6.18084C13.0766 6.47765 12.4641 6.98029 12.0332 7.62519C11.6023 8.27009 11.3723 9.02828 11.3723 9.80389C11.3723 10.844 11.7855 11.8414 12.5209 12.5769C13.2564 13.3123 14.2538 13.7255 15.2939 13.7255Z" fill="#EBEBEB"/>
<path d="M21.1763 23.5294C21.4363 23.5294 21.6856 23.4261 21.8695 23.2423C22.0534 23.0584 22.1566 22.809 22.1566 22.549C22.1566 20.7289 21.4336 18.9833 20.1466 17.6963C18.8596 16.4093 17.114 15.6863 15.2939 15.6863C13.4738 15.6863 11.7282 16.4093 10.4412 17.6963C9.15419 18.9833 8.43115 20.7289 8.43115 22.549C8.43115 22.809 8.53444 23.0584 8.7183 23.2423C8.90216 23.4261 9.15153 23.5294 9.41154 23.5294H21.1763Z" fill="#EBEBEB"/>
</g>
<defs>
<clipPath id="clip0_175_1259">
<rect width="23.5294" height="23.5294" fill="white" transform="translate(3.5293 2.94116)"/>
</clipPath>
</defs>
</svg>
