<svg width="30" height="47" viewBox="0 0 30 47" fill="none" xmlns="http://www.w3.org/2000/svg">
<g clip-path="url(#clip0_175_1224)">
<path d="M23.3064 2.52467C18.259 -0.84123 11.7374 -0.84123 6.69302 2.52467C0.192127 6.85563 -1.88899 15.2955 1.85287 22.1546L14.9997 46.2576L28.1465 22.1546C31.8884 15.2955 29.8102 6.85563 23.3064 2.52467ZM25.5503 20.7396L15.0027 40.0794L4.45204 20.7396C1.45027 15.2334 3.11694 8.46309 8.336 4.98766C10.3609 3.63775 12.6788 2.95984 14.9997 2.95984C17.3206 2.95984 19.6385 3.63479 21.6634 4.9847C26.8825 8.46309 28.5521 15.2334 25.5503 20.7396Z" fill="black"/>
<path d="M14.9999 6.16626C10.9206 6.16626 7.59912 9.48775 7.59912 13.5671C7.59912 17.6464 10.9206 20.9679 14.9999 20.9679C19.0793 20.9679 22.4008 17.6464 22.4008 13.5671C22.4008 9.48775 19.0822 6.16626 14.9999 6.16626ZM14.9999 18.0076C12.5518 18.0076 10.5595 16.0153 10.5595 13.5671C10.5595 11.1189 12.5518 9.12659 14.9999 9.12659C17.4481 9.12659 19.4404 11.1189 19.4404 13.5671C19.4404 16.0153 17.4481 18.0076 14.9999 18.0076Z" fill="black"/>
</g>
<defs>
<clipPath id="clip0_175_1224">
<rect width="30" height="46.2581" fill="white"/>
</clipPath>
</defs>
</svg>
