<svg width="24" height="24" viewBox="0 0 24 24" fill="none" xmlns="http://www.w3.org/2000/svg">
<g clip-path="url(#clip0_1533_1095)">
<path d="M12 22.5C9.21523 22.5 6.54451 21.3938 4.57538 19.4246C2.60625 17.4555 1.5 14.7848 1.5 12C1.5 9.21523 2.60625 6.54451 4.57538 4.57538C6.54451 2.60625 9.21523 1.5 12 1.5C14.7848 1.5 17.4555 2.60625 19.4246 4.57538C21.3938 6.54451 22.5 9.21523 22.5 12C22.5 14.7848 21.3938 17.4555 19.4246 19.4246C17.4555 21.3938 14.7848 22.5 12 22.5ZM12 24C15.1826 24 18.2348 22.7357 20.4853 20.4853C22.7357 18.2348 24 15.1826 24 12C24 8.8174 22.7357 5.76516 20.4853 3.51472C18.2348 1.26428 15.1826 0 12 0C8.8174 0 5.76516 1.26428 3.51472 3.51472C1.26428 5.76516 0 8.8174 0 12C0 15.1826 1.26428 18.2348 3.51472 20.4853C5.76516 22.7357 8.8174 24 12 24Z" fill="#46843C"/>
<path d="M16.4545 7.45493C16.4438 7.46529 16.4338 7.47631 16.4245 7.48793L11.215 14.1254L8.07553 10.9844C7.86227 10.7857 7.5802 10.6775 7.28875 10.6827C6.9973 10.6878 6.71922 10.8059 6.5131 11.012C6.30698 11.2181 6.18891 11.4962 6.18377 11.7876C6.17863 12.0791 6.28681 12.3612 6.48553 12.5744L10.4545 16.5449C10.5615 16.6517 10.6888 16.7358 10.8289 16.7922C10.969 16.8487 11.1191 16.8763 11.2701 16.8735C11.4212 16.8707 11.5701 16.8375 11.7081 16.7759C11.846 16.7143 11.9701 16.6256 12.073 16.5149L18.061 9.02993C18.2649 8.81593 18.3764 8.53028 18.3714 8.23473C18.3663 7.93919 18.2452 7.6575 18.0341 7.45057C17.823 7.24364 17.539 7.1281 17.2434 7.12891C16.9478 7.12973 16.6645 7.24684 16.4545 7.45493Z" fill="#46843C"/>
</g>
<defs>
<clipPath id="clip0_1533_1095">
<rect width="24" height="24" fill="white"/>
</clipPath>
</defs>
</svg>
