<svg width="176" height="152" viewBox="0 0 176 152" fill="none" xmlns="http://www.w3.org/2000/svg">
<path d="M175.286 2H129.665L99.9393 35.285L80.1375 57.9563L72.7118 66.3531L65.2861 75.5895L72.7118 84.8259L80.1375 94.0624L88.8008 104.138L101.177 119.253L113.553 134.367L128.404 152H175.286L145.731 119.253L109.84 75.5895L145.731 35.285L175.286 2Z" fill="#F6AD08"/>
<path d="M0.286133 150H45.9071L75.633 116.715L95.4348 94.0437L102.86 85.6469L110.286 76.4105L102.86 67.1741L95.4348 57.9376L86.7715 47.8615L74.3954 32.7474L62.0193 17.6332L47.1679 0L0.286133 0L29.8414 32.7474L65.7321 76.4105L29.8414 116.715L0.286133 150Z" fill="white"/>
</svg>
