<svg width="52" height="48" viewBox="0 0 52 48" fill="none" xmlns="http://www.w3.org/2000/svg">
<path d="M4 12.9231C4 11.9035 3.10457 11.0769 2 11.0769C0.89543 11.0769 0 11.9035 0 12.9231C0 13.9427 0.89543 14.7692 2 14.7692C3.10457 14.7692 4 13.9427 4 12.9231Z" fill="#2E2E2E"/>
<path d="M4 1.84615C4 0.82655 3.10457 0 2 0C0.89543 0 0 0.82655 0 1.84615C0 2.86576 0.89543 3.69231 2 3.69231C3.10457 3.69231 4 2.86576 4 1.84615Z" fill="#2E2E2E"/>
<path d="M16 35.0769C16 34.0573 15.1046 33.2308 14 33.2308C12.8954 33.2308 12 34.0573 12 35.0769C12 36.0965 12.8954 36.9231 14 36.9231C15.1046 36.9231 16 36.0965 16 35.0769Z" fill="#2E2E2E"/>
<path d="M16 24C16 22.9804 15.1046 22.1538 14 22.1538C12.8954 22.1538 12 22.9804 12 24C12 25.0196 12.8954 25.8462 14 25.8462C15.1046 25.8462 16 25.0196 16 24Z" fill="#2E2E2E"/>
<path d="M16 12.9231C16 11.9035 15.1046 11.0769 14 11.0769C12.8954 11.0769 12 11.9035 12 12.9231C12 13.9427 12.8954 14.7692 14 14.7692C15.1046 14.7692 16 13.9427 16 12.9231Z" fill="#2E2E2E"/>
<path d="M16 1.84615C16 0.82655 15.1046 0 14 0C12.8954 0 12 0.82655 12 1.84615C12 2.86576 12.8954 3.69231 14 3.69231C15.1046 3.69231 16 2.86576 16 1.84615Z" fill="#2E2E2E"/>
<path d="M28 35.0769C28 34.0573 27.1046 33.2308 26 33.2308C24.8954 33.2308 24 34.0573 24 35.0769C24 36.0965 24.8954 36.9231 26 36.9231C27.1046 36.9231 28 36.0965 28 35.0769Z" fill="#2E2E2E"/>
<path d="M28 24C28 22.9804 27.1046 22.1538 26 22.1538C24.8954 22.1538 24 22.9804 24 24C24 25.0196 24.8954 25.8462 26 25.8462C27.1046 25.8462 28 25.0196 28 24Z" fill="#2E2E2E"/>
<path d="M28 12.9231C28 11.9035 27.1046 11.0769 26 11.0769C24.8954 11.0769 24 11.9035 24 12.9231C24 13.9427 24.8954 14.7692 26 14.7692C27.1046 14.7692 28 13.9427 28 12.9231Z" fill="#2E2E2E"/>
<path d="M28 1.84615C28 0.82655 27.1046 0 26 0C24.8954 0 24 0.82655 24 1.84615C24 2.86576 24.8954 3.69231 26 3.69231C27.1046 3.69231 28 2.86576 28 1.84615Z" fill="#2E2E2E"/>
<path d="M40 46.1538C40 45.1342 39.1046 44.3077 38 44.3077C36.8954 44.3077 36 45.1342 36 46.1538C36 47.1734 36.8954 48 38 48C39.1046 48 40 47.1734 40 46.1538Z" fill="#2E2E2E"/>
<path d="M40 35.0769C40 34.0573 39.1046 33.2308 38 33.2308C36.8954 33.2308 36 34.0573 36 35.0769C36 36.0965 36.8954 36.9231 38 36.9231C39.1046 36.9231 40 36.0965 40 35.0769Z" fill="#2E2E2E"/>
<path d="M40 24C40 22.9804 39.1046 22.1538 38 22.1538C36.8954 22.1538 36 22.9804 36 24C36 25.0196 36.8954 25.8462 38 25.8462C39.1046 25.8462 40 25.0196 40 24Z" fill="#2E2E2E"/>
<path d="M40 12.9231C40 11.9035 39.1046 11.0769 38 11.0769C36.8954 11.0769 36 11.9035 36 12.9231C36 13.9427 36.8954 14.7692 38 14.7692C39.1046 14.7692 40 13.9427 40 12.9231Z" fill="#2E2E2E"/>
<path d="M40 1.84615C40 0.82655 39.1046 0 38 0C36.8954 0 36 0.82655 36 1.84615C36 2.86576 36.8954 3.69231 38 3.69231C39.1046 3.69231 40 2.86576 40 1.84615Z" fill="#2E2E2E"/>
<path d="M52 46.1538C52 45.1342 51.1046 44.3077 50 44.3077C48.8954 44.3077 48 45.1342 48 46.1538C48 47.1734 48.8954 48 50 48C51.1046 48 52 47.1734 52 46.1538Z" fill="#2E2E2E"/>
<path d="M52 35.0769C52 34.0573 51.1046 33.2308 50 33.2308C48.8954 33.2308 48 34.0573 48 35.0769C48 36.0965 48.8954 36.9231 50 36.9231C51.1046 36.9231 52 36.0965 52 35.0769Z" fill="#2E2E2E"/>
<path d="M52 24C52 22.9804 51.1046 22.1538 50 22.1538C48.8954 22.1538 48 22.9804 48 24C48 25.0196 48.8954 25.8462 50 25.8462C51.1046 25.8462 52 25.0196 52 24Z" fill="#2E2E2E"/>
<path d="M52 12.9231C52 11.9035 51.1046 11.0769 50 11.0769C48.8954 11.0769 48 11.9035 48 12.9231C48 13.9427 48.8954 14.7692 50 14.7692C51.1046 14.7692 52 13.9427 52 12.9231Z" fill="#2E2E2E"/>
<path d="M52 1.84615C52 0.82655 51.1046 0 50 0C48.8954 0 48 0.82655 48 1.84615C48 2.86576 48.8954 3.69231 50 3.69231C51.1046 3.69231 52 2.86576 52 1.84615Z" fill="#2E2E2E"/>
</svg>
