<svg width="150" height="150" viewBox="0 0 150 150" fill="none" xmlns="http://www.w3.org/2000/svg">
<circle cx="75" cy="75" r="75" fill="#D9D9D9"/>
<path d="M43.75 112.5C43.75 112.5 37.5 112.5 37.5 106.25C37.5 100 43.75 81.25 75 81.25C106.25 81.25 112.5 100 112.5 106.25C112.5 112.5 106.25 112.5 106.25 112.5H43.75ZM75 75C79.9728 75 84.7419 73.0246 88.2583 69.5083C91.7746 65.9919 93.75 61.2228 93.75 56.25C93.75 51.2772 91.7746 46.5081 88.2583 42.9917C84.7419 39.4754 79.9728 37.5 75 37.5C70.0272 37.5 65.2581 39.4754 61.7417 42.9917C58.2254 46.5081 56.25 51.2772 56.25 56.25C56.25 61.2228 58.2254 65.9919 61.7417 69.5083C65.2581 73.0246 70.0272 75 75 75Z" fill="#231F20"/>
</svg>
