<svg width="884" height="203" viewBox="0 0 884 203" fill="none" xmlns="http://www.w3.org/2000/svg">
<path d="M199.626 101.58C199.626 155.818 155.657 199.786 101.42 199.786C47.1821 199.786 3.21387 155.818 3.21387 101.58C3.21387 47.3423 47.1821 3.37402 101.42 3.37402C155.657 3.37402 199.626 47.3423 199.626 101.58Z" stroke="#F6AD08" stroke-width="5"/>
<rect x="13" y="62" width="179" height="3" fill="#F6AD08"/>
<rect x="190.129" y="139.041" width="107.482" height="3.35686" transform="rotate(-136.596 190.129 139.041)" fill="#F6AD08"/>
<rect x="10.7617" y="135.841" width="106.022" height="3.35686" transform="rotate(-43.6155 10.7617 135.841)" fill="#F6AD08"/>
<path d="M97.2236 189.698L98.9021 164.521H103.098L104.777 189.698H97.2236Z" fill="#F6AD08" stroke="#F6AD08"/>
<path d="M98.9023 145.639L99.7416 120.043H101.84L103.098 145.639H98.9023Z" fill="#F6AD08" stroke="#F6AD08"/>
<path d="M99.7412 104.098L100.58 85.6348H101.42L102.259 104.098H99.7412Z" fill="#F6AD08" stroke="#F6AD08"/>
<path d="M100.58 76.4039L101 68.0117L101.419 76.4039H100.58Z" fill="#F6AD08" stroke="#F6AD08"/>
<path d="M83.578 15.5938V51.1406H76.2538V15.5938H83.578ZM97.7381 30.7793V36.4922H81.576V30.7793H97.7381ZM99.4471 15.5938V21.3311H81.576V15.5938H99.4471ZM107.225 15.5938L113.915 27.9961L120.604 15.5938H128.978L118.651 33.2207L129.247 51.1406H120.8L113.915 38.4941L107.03 51.1406H98.534L109.154 33.2207L98.8026 15.5938H107.225Z" fill="#F6AD08"/>
<path d="M332.375 38.36V58.7H279.995V90.92H320.135V110.9H279.995V164H254.795V38.36H332.375ZM406.044 164L378.324 115.04H366.444V164H341.244V38.36H388.404C398.124 38.36 406.404 40.1 413.244 43.58C420.084 46.94 425.184 51.56 428.544 57.44C432.024 63.2 433.764 69.68 433.764 76.88C433.764 85.16 431.364 92.66 426.564 99.38C421.764 105.98 414.624 110.54 405.144 113.06L435.204 164H406.044ZM366.444 96.14H387.504C394.344 96.14 399.444 94.52 402.804 91.28C406.164 87.92 407.844 83.3 407.844 77.42C407.844 71.66 406.164 67.22 402.804 64.1C399.444 60.86 394.344 59.24 387.504 59.24H366.444V96.14ZM472.757 58.7V90.2H515.057V110.18H472.757V143.48H520.457V164H447.557V38.18H520.457V58.7H472.757ZM619.858 38.36V58.7H586.378V164H561.178V58.7H527.698V38.36H619.858ZM654.444 58.7V90.2H696.744V110.18H654.444V143.48H702.144V164H629.244V38.18H702.144V58.7H654.444Z" fill="white"/>
<path d="M881 29H835.379L805.653 62.285L785.851 84.9563L778.426 93.3531L771 102.59L778.426 111.826L785.851 121.062L794.515 131.138L806.891 146.253L819.267 161.367L834.118 179H881L851.445 146.253L815.554 102.59L851.445 62.285L881 29Z" stroke="white" stroke-width="2"/>
<path d="M706 177H751.621L781.347 143.715L801.149 121.044L808.574 112.647L816 103.41L808.574 94.1741L801.149 84.9376L792.485 74.8615L780.109 59.7474L767.733 44.6332L752.882 27H706L735.555 59.7474L771.446 103.41L735.555 143.715L706 177Z" fill="#F6AD08"/>
</svg>
