<svg width="881" height="202" viewBox="0 0 881 202" fill="none" xmlns="http://www.w3.org/2000/svg">
<path d="M331.661 36.36V56.7H279.281V88.92H319.421V108.9H279.281V162H254.081V36.36H331.661ZM405.33 162L377.61 113.04H365.73V162H340.53V36.36H387.69C397.41 36.36 405.69 38.1 412.53 41.58C419.37 44.94 424.47 49.56 427.83 55.44C431.31 61.2 433.05 67.68 433.05 74.88C433.05 83.16 430.65 90.66 425.85 97.38C421.05 103.98 413.91 108.54 404.43 111.06L434.49 162H405.33ZM365.73 94.14H386.79C393.63 94.14 398.73 92.52 402.09 89.28C405.45 85.92 407.13 81.3 407.13 75.42C407.13 69.66 405.45 65.22 402.09 62.1C398.73 58.86 393.63 57.24 386.79 57.24H365.73V94.14ZM472.043 56.7V88.2H514.343V108.18H472.043V141.48H519.743V162H446.843V36.18H519.743V56.7H472.043ZM619.144 36.36V56.7H585.664V162H560.464V56.7H526.984V36.36H619.144ZM653.73 56.7V88.2H696.03V108.18H653.73V141.48H701.43V162H628.53V36.18H701.43V56.7H653.73Z" fill="white"/>
<path d="M880.286 27H834.665L804.939 60.285L785.137 82.9563L777.712 91.3531L770.286 100.59L777.712 109.826L785.137 119.062L793.801 129.138L806.177 144.253L818.553 159.367L833.404 177H880.286L850.731 144.253L814.84 100.59L850.731 60.285L880.286 27Z" fill="#F6AD08"/>
<path d="M705.286 175H750.907L780.633 141.715L800.435 119.044L807.86 110.647L815.286 101.41L807.86 92.1741L800.435 82.9376L791.771 72.8615L779.395 57.7474L767.019 42.6332L752.168 25H705.286L734.841 57.7474L770.732 101.41L734.841 141.715L705.286 175Z" fill="white"/>
<path d="M198.412 100.706C198.412 154.667 154.667 198.412 100.706 198.412C46.7444 198.412 3 154.667 3 100.706C3 46.7444 46.7444 3 100.706 3C154.667 3 198.412 46.7444 198.412 100.706Z" stroke="#F6AD08" stroke-width="6"/>
<rect x="12.2861" y="61.126" width="179" height="6" fill="#F6AD08"/>
<rect x="187.088" y="140.12" width="106.02" height="6" transform="rotate(-136.596 187.088 140.12)" fill="#F6AD08"/>
<rect x="10.0479" y="134.967" width="106.022" height="6" transform="rotate(-43.6155 10.0479 134.967)" fill="#F6AD08"/>
<path d="M96.5098 188.824L98.1882 163.647H102.384L104.063 188.824H96.5098Z" fill="#F6AD08" stroke="#F6AD08"/>
<path d="M98.1885 144.765L99.0277 119.169H101.126L102.385 144.765H98.1885Z" fill="#F6AD08" stroke="#F6AD08"/>
<path d="M99.0273 103.223L99.8666 84.7607H100.706L101.545 103.223H99.0273Z" fill="#F6AD08" stroke="#F6AD08"/>
<path d="M99.8662 75.5299L100.286 67.1377L100.705 75.5299H99.8662Z" fill="#F6AD08" stroke="#F6AD08"/>
<path d="M82.8641 14.7197V50.2666H75.5399V14.7197H82.8641ZM97.0243 29.9053V35.6182H80.8622V29.9053H97.0243ZM98.7332 14.7197V20.457H80.8622V14.7197H98.7332ZM106.512 14.7197L113.201 27.1221L119.89 14.7197H128.264L117.937 32.3467L128.533 50.2666H120.086L113.201 37.6201L106.316 50.2666H97.8202L108.44 32.3467L98.0887 14.7197H106.512Z" fill="#F6AD08"/>
</svg>
