<svg width="23" height="23" viewBox="0 0 23 23" fill="none" xmlns="http://www.w3.org/2000/svg">
<path d="M21.7265 3.41902C21.8527 3.54554 21.9235 3.71691 21.9235 3.89557C21.9235 4.07422 21.8527 4.24559 21.7265 4.37212L20.3185 5.78152L17.6185 3.08152L19.0265 1.67212C19.1531 1.54558 19.3248 1.47449 19.5038 1.47449C19.6827 1.47449 19.8544 1.54558 19.981 1.67212L21.7265 3.41767V3.41902ZM19.364 6.73462L16.664 4.03462L7.46649 13.2335C7.39218 13.3078 7.33625 13.3984 7.30313 13.4981L6.21639 16.757C6.19668 16.8164 6.19388 16.8802 6.2083 16.9411C6.22273 17.002 6.25381 17.0577 6.29807 17.1019C6.34233 17.1462 6.39803 17.1773 6.45894 17.1917C6.51985 17.2061 6.58357 17.2033 6.64299 17.1836L9.90189 16.0969C10.0015 16.0641 10.0921 16.0087 10.1665 15.9349L19.364 6.73597V6.73462Z" fill="black"/>
<path fill-rule="evenodd" clip-rule="evenodd" d="M2.15234 19.025C2.15234 19.562 2.36569 20.0771 2.74545 20.4569C3.12521 20.8366 3.64028 21.05 4.17734 21.05H19.0273C19.5644 21.05 20.0795 20.8366 20.4592 20.4569C20.839 20.0771 21.0523 19.562 21.0523 19.025V10.925C21.0523 10.7459 20.9812 10.5743 20.8546 10.4477C20.7281 10.3211 20.5564 10.25 20.3773 10.25C20.1983 10.25 20.0266 10.3211 19.9 10.4477C19.7735 10.5743 19.7023 10.7459 19.7023 10.925V19.025C19.7023 19.204 19.6312 19.3757 19.5046 19.5023C19.3781 19.6288 19.2064 19.7 19.0273 19.7H4.17734C3.99832 19.7 3.82663 19.6288 3.70005 19.5023C3.57346 19.3757 3.50234 19.204 3.50234 19.025V4.17496C3.50234 3.99594 3.57346 3.82425 3.70005 3.69767C3.82663 3.57108 3.99832 3.49996 4.17734 3.49996H12.9523C13.1314 3.49996 13.3031 3.42885 13.4296 3.30226C13.5562 3.17567 13.6273 3.00398 13.6273 2.82496C13.6273 2.64594 13.5562 2.47425 13.4296 2.34767C13.3031 2.22108 13.1314 2.14996 12.9523 2.14996H4.17734C3.64028 2.14996 3.12521 2.36331 2.74545 2.74307C2.36569 3.12283 2.15234 3.6379 2.15234 4.17496V19.025Z" fill="black"/>
</svg>
