<svg width="51" height="50" viewBox="0 0 51 50" fill="none" xmlns="http://www.w3.org/2000/svg">
<circle cx="25.5" cy="25" r="25" fill="#D9D9D9"/>
<path d="M25.049 21.0867C26.2059 21.0867 27.3369 20.7436 28.2989 20.1008C29.2609 19.4581 30.0107 18.5445 30.4534 17.4756C30.8962 16.4067 31.012 15.2305 30.7863 14.0957C30.5606 12.961 30.0035 11.9187 29.1854 11.1006C28.3673 10.2825 27.3249 9.72532 26.1902 9.49961C25.0555 9.2739 23.8793 9.38974 22.8104 9.8325C21.7415 10.2752 20.8279 11.025 20.1851 11.987C19.5423 12.949 19.1992 14.08 19.1992 15.237C19.1992 16.7884 19.8155 18.2763 20.9126 19.3734C22.0096 20.4704 23.4975 21.0867 25.049 21.0867Z" fill="#231F20"/>
<path d="M33.8242 35.7111C34.212 35.7111 34.584 35.557 34.8583 35.2828C35.1325 35.0085 35.2866 34.6365 35.2866 34.2487C35.2866 31.5336 34.2081 28.9298 32.2883 27.01C30.3684 25.0901 27.7646 24.0116 25.0496 24.0116C22.3345 24.0116 19.7307 25.0901 17.8109 27.01C15.891 28.9298 14.8125 31.5336 14.8125 34.2487C14.8125 34.6365 14.9666 35.0085 15.2408 35.2828C15.5151 35.557 15.8871 35.7111 16.2749 35.7111H33.8242Z" fill="#231F20"/>
</svg>
