<svg width="16" height="16" viewBox="0 0 16 16" fill="none" xmlns="http://www.w3.org/2000/svg">
<g clip-path="url(#clip0_1275_1815)">
<path d="M8 14.5625C6.25952 14.5625 4.59032 13.8711 3.35961 12.6404C2.1289 11.4097 1.4375 9.74048 1.4375 8C1.4375 6.25952 2.1289 4.59032 3.35961 3.35961C4.59032 2.1289 6.25952 1.4375 8 1.4375C9.74048 1.4375 11.4097 2.1289 12.6404 3.35961C13.8711 4.59032 14.5625 6.25952 14.5625 8C14.5625 9.74048 13.8711 11.4097 12.6404 12.6404C11.4097 13.8711 9.74048 14.5625 8 14.5625ZM8 15.5C9.98912 15.5 11.8968 14.7098 13.3033 13.3033C14.7098 11.8968 15.5 9.98912 15.5 8C15.5 6.01088 14.7098 4.10322 13.3033 2.6967C11.8968 1.29018 9.98912 0.5 8 0.5C6.01088 0.5 4.10322 1.29018 2.6967 2.6967C1.29018 4.10322 0.5 6.01088 0.5 8C0.5 9.98912 1.29018 11.8968 2.6967 13.3033C4.10322 14.7098 6.01088 15.5 8 15.5Z" fill="white"/>
<path d="M8 4.25C8.12432 4.25 8.24355 4.29939 8.33146 4.38729C8.41936 4.4752 8.46875 4.59443 8.46875 4.71875V7.53125H11.2812C11.4056 7.53125 11.5248 7.58064 11.6127 7.66854C11.7006 7.75645 11.75 7.87568 11.75 8C11.75 8.12432 11.7006 8.24355 11.6127 8.33146C11.5248 8.41936 11.4056 8.46875 11.2812 8.46875H8.46875V11.2812C8.46875 11.4056 8.41936 11.5248 8.33146 11.6127C8.24355 11.7006 8.12432 11.75 8 11.75C7.87568 11.75 7.75645 11.7006 7.66854 11.6127C7.58064 11.5248 7.53125 11.4056 7.53125 11.2812V8.46875H4.71875C4.59443 8.46875 4.4752 8.41936 4.38729 8.33146C4.29939 8.24355 4.25 8.12432 4.25 8C4.25 7.87568 4.29939 7.75645 4.38729 7.66854C4.4752 7.58064 4.59443 7.53125 4.71875 7.53125H7.53125V4.71875C7.53125 4.59443 7.58064 4.4752 7.66854 4.38729C7.75645 4.29939 7.87568 4.25 8 4.25Z" fill="white"/>
</g>
<defs>
<clipPath id="clip0_1275_1815">
<rect width="15" height="15" fill="white" transform="translate(0.5 0.5)"/>
</clipPath>
</defs>
</svg>
