<svg width="200" height="200" viewBox="0 0 200 200" fill="none" xmlns="http://www.w3.org/2000/svg">
<path d="M19 53C19 51.8954 19.8954 51 21 51H120C121.105 51 122 51.8954 122 53V115H19V53Z" fill="#F6AD08"/>
<path d="M15.7998 114.2H129.2V130.2H15.7998V114.2Z" fill="#353535"/>
<path d="M23.8 118.399H15.8C15.4 118.399 15 118.799 15 119.199V125.999C15 126.399 15.4 126.799 15.8 126.799H24C26 126.799 27.6 125.199 27.6 123.199V122.199C27.6 120.199 25.8 118.399 23.8 118.399Z" fill="#E15B64"/>
<path d="M177.8 139H133.6C130.4 139 128 136.4 128 133.4L128.2 71.3998C128.2 68.1998 130.8 65.7998 133.8 65.7998H159.8C161.8 65.7998 163.8 66.9998 164.8 68.7998L182.6 101.2C183 102 183.2 103 183.2 104V133.6C183.4 136.6 180.8 139 177.8 139Z" fill="#353535"/>
<path d="M147 130.2H19.3998C19.3998 130.2 18.7998 130.2 18.7998 131C18.7998 135.8 21.3998 139 25.3998 139H147C149 139 150.4 137 150.4 134.6C150.4 132.2 148.8 130.2 147 130.2Z" fill="#0E0E0E"/>
<path d="M51.2004 149.6C59.3742 149.6 66.0004 142.974 66.0004 134.8C66.0004 126.626 59.3742 120 51.2004 120C43.0266 120 36.4004 126.626 36.4004 134.8C36.4004 142.974 43.0266 149.6 51.2004 149.6Z" fill="#353535"/>
<path d="M51.2004 123C57.8004 123 63.0004 128.4 63.0004 134.8C63.0004 141.2 57.6004 146.6 51.2004 146.6C44.8004 146.6 39.4004 141.2 39.4004 134.8C39.4004 128.4 44.8004 123 51.2004 123ZM51.2004 117C41.4004 117 33.4004 125 33.4004 134.8C33.4004 144.6 41.4004 152.6 51.2004 152.6C61.0004 152.6 69.0004 144.6 69.0004 134.8C69.0004 125 61.2004 117 51.2004 117Z" fill="#1E1E1E"/>
<path d="M51.2002 142.8C55.6185 142.8 59.2002 139.218 59.2002 134.8C59.2002 130.382 55.6185 126.8 51.2002 126.8C46.7819 126.8 43.2002 130.382 43.2002 134.8C43.2002 139.218 46.7819 142.8 51.2002 142.8Z" fill="#353535"/>
<path d="M145.8 149.6C153.974 149.6 160.6 142.974 160.6 134.8C160.6 126.626 153.974 120 145.8 120C137.626 120 131 126.626 131 134.8C131 142.974 137.626 149.6 145.8 149.6Z" fill="#353535"/>
<path d="M145.8 123C152.4 123 157.6 128.4 157.6 134.8C157.6 141.2 152.2 146.6 145.8 146.6C139.4 146.6 134 141.4 134 134.8C134 128.2 139.2 123 145.8 123ZM145.8 117C136 117 128 125 128 134.8C128 144.6 136 152.6 145.8 152.6C155.6 152.6 163.6 144.6 163.6 134.8C163.6 125 155.6 117 145.8 117Z" fill="#1E1E1E"/>
<path d="M145.8 142.8C150.218 142.8 153.8 139.218 153.8 134.8C153.8 130.382 150.218 126.8 145.8 126.8C141.382 126.8 137.8 130.382 137.8 134.8C137.8 139.218 141.382 142.8 145.8 142.8Z" fill="#353535"/>
<path d="M173.8 120.2H182.6C183.8 120.2 184.8 119.2 184.8 118V114.2C184.8 113 183.8 112 182.6 112H174C173.4 112 173 112.4 173 113V119.4C173 119.8 173.4 120.2 173.8 120.2Z" fill="#E15B64"/>
<path d="M161.6 73.1998C160.8 71.7998 159.4 70.7998 157.6 70.7998H137C134.6 70.7998 132.6 72.7998 132.6 75.3998L132.4 102.4H177.8C177.8 102 177.6 101.6 177.4 101.2L161.6 73.1998Z" fill="#1E1E1E"/>
<path d="M143.6 110.999H136.6C135.6 110.999 134.8 110.199 134.8 109.199C134.8 108.199 135.6 107.399 136.6 107.399H143.6C144.6 107.399 145.4 108.199 145.4 109.199C145.4 110.199 144.6 110.999 143.6 110.999Z" fill="#353535"/>
<rect x="19" y="63" width="103" height="37" fill="#353535"/>
<path d="M50.2676 75.436V77.47H45.0296V80.692H49.0436V82.69H45.0296V88H42.5096V75.436H50.2676ZM57.6345 88L54.8625 83.104H53.6745V88H51.1545V75.436H55.8705C56.8425 75.436 57.6705 75.61 58.3545 75.958C59.0385 76.294 59.5485 76.756 59.8845 77.344C60.2325 77.92 60.4065 78.568 60.4065 79.288C60.4065 80.116 60.1665 80.866 59.6865 81.538C59.2065 82.198 58.4925 82.654 57.5445 82.906L60.5505 88H57.6345ZM53.6745 81.214H55.7805C56.4645 81.214 56.9745 81.052 57.3105 80.728C57.6465 80.392 57.8145 79.93 57.8145 79.342C57.8145 78.766 57.6465 78.322 57.3105 78.01C56.9745 77.686 56.4645 77.524 55.7805 77.524H53.6745V81.214ZM64.3058 77.47V80.62H68.5358V82.618H64.3058V85.948H69.0758V88H61.7858V75.418H69.0758V77.47H64.3058ZM79.0158 75.436V77.47H75.6678V88H73.1478V77.47H69.7998V75.436H79.0158ZM82.4745 77.47V80.62H86.7045V82.618H82.4745V85.948H87.2445V88H79.9545V75.418H87.2445V77.47H82.4745Z" fill="white"/>
<path d="M96.1586 88L93.4406 83.77L90.9746 88H88.1306L92.0906 81.664L88.0766 75.436H90.9746L93.6926 79.648L96.1406 75.436H98.9846L95.0426 81.754L99.0566 88H96.1586Z" fill="#F6AD08"/>
</svg>
