<svg width="32" height="24" viewBox="0 0 32 24" fill="none" xmlns="http://www.w3.org/2000/svg">
<path d="M31.3307 4.2479C31.1499 3.56693 30.7934 2.94541 30.2968 2.44558C29.8003 1.94575 29.1811 1.58515 28.5013 1.3999C26.0067 0.726562 16 0.726563 16 0.726563C16 0.726563 5.99333 0.726562 3.49733 1.3999C2.81788 1.58548 2.19906 1.94621 1.70277 2.446C1.20648 2.9458 0.850122 3.56715 0.669333 4.2479C0 6.7599 0 11.9999 0 11.9999C0 11.9999 0 17.2399 0.669333 19.7519C0.850115 20.4329 1.20663 21.0544 1.70319 21.5542C2.19974 22.054 2.8189 22.4146 3.49867 22.5999C5.99333 23.2732 16 23.2732 16 23.2732C16 23.2732 26.0067 23.2732 28.5027 22.5999C29.1825 22.4148 29.8017 22.0542 30.2983 21.5544C30.7949 21.0545 31.1513 20.4329 31.332 19.7519C32 17.2399 32 11.9999 32 11.9999C32 11.9999 32 6.7599 31.3307 4.2479ZM12.7267 16.7572V7.2426L21.0907 11.9999L12.7267 16.7572Z" fill="white"/>
</svg>
