<svg width="40" height="40" viewBox="0 0 40 40" fill="none" xmlns="http://www.w3.org/2000/svg">
<path d="M11.6133 11.6148C11.7294 11.4984 11.8674 11.406 12.0192 11.343C12.1711 11.28 12.3339 11.2476 12.4983 11.2476C12.6627 11.2476 12.8255 11.28 12.9774 11.343C13.1293 11.406 13.2672 11.4984 13.3833 11.6148L19.9983 18.2323L26.6133 11.6148C26.7295 11.4986 26.8675 11.4064 27.0194 11.3435C27.1712 11.2806 27.334 11.2482 27.4983 11.2482C27.6627 11.2482 27.8254 11.2806 27.9773 11.3435C28.1291 11.4064 28.2671 11.4986 28.3833 11.6148C28.4995 11.731 28.5917 11.869 28.6546 12.0208C28.7175 12.1727 28.7499 12.3354 28.7499 12.4998C28.7499 12.6642 28.7175 12.8269 28.6546 12.9788C28.5917 13.1306 28.4995 13.2686 28.3833 13.3848L21.7658 19.9998L28.3833 26.6148C28.4995 26.731 28.5917 26.869 28.6546 27.0208C28.7175 27.1727 28.7499 27.3354 28.7499 27.4998C28.7499 27.6642 28.7175 27.8269 28.6546 27.9788C28.5917 28.1306 28.4995 28.2686 28.3833 28.3848C28.2671 28.501 28.1291 28.5932 27.9773 28.6561C27.8254 28.719 27.6627 28.7514 27.4983 28.7514C27.334 28.7514 27.1712 28.719 27.0194 28.6561C26.8675 28.5932 26.7295 28.501 26.6133 28.3848L19.9983 21.7673L13.3833 28.3848C13.2671 28.501 13.1291 28.5932 12.9773 28.6561C12.8254 28.719 12.6627 28.7514 12.4983 28.7514C12.334 28.7514 12.1712 28.719 12.0194 28.6561C11.8675 28.5932 11.7295 28.501 11.6133 28.3848C11.4971 28.2686 11.4049 28.1306 11.342 27.9788C11.2791 27.8269 11.2467 27.6642 11.2467 27.4998C11.2467 27.3354 11.2791 27.1727 11.342 27.0208C11.4049 26.869 11.4971 26.731 11.6133 26.6148L18.2308 19.9998L11.6133 13.3848C11.4969 13.2687 11.4046 13.1307 11.3415 12.9789C11.2785 12.827 11.2461 12.6642 11.2461 12.4998C11.2461 12.3354 11.2785 12.1726 11.3415 12.0207C11.4046 11.8688 11.4969 11.7309 11.6133 11.6148Z" fill="black"/>
</svg>
