<svg width="55" height="30" viewBox="0 0 55 30" fill="none" xmlns="http://www.w3.org/2000/svg">
<path d="M0 22.4891H10.6234C9.91722 23.4334 9.49066 24.5886 9.49066 25.8642H4.25753L0 24.7859V22.4891ZM54.111 16.4729V25.8649H49.6018C49.6018 25.7309 49.5841 25.6044 49.5732 25.4703C49.5242 24.7022 49.3126 23.9695 48.9779 23.3069C48.0445 21.4822 46.1532 20.2345 43.9652 20.2345C40.8513 20.2345 38.3252 22.7572 38.3252 25.8642H20.7604C20.7604 24.5886 20.3359 23.4334 19.6242 22.4891H36.4196V2.94312H45.8402V5.19707L48.8452 14.2156L54.111 16.4729ZM46.5893 14.2163L44.3414 7.45238H39.0791V14.2163H46.5893ZM19.2562 25.8642C19.2562 28.1468 17.407 30 15.1293 30C12.8427 30 10.9949 28.14 10.9949 25.8642C10.9949 23.5919 12.8461 21.736 15.1293 21.736C17.4063 21.736 19.2562 23.5885 19.2562 25.8642ZM17.3798 25.8642C17.3798 24.6247 16.3668 23.6096 15.1286 23.6096C13.8781 23.6096 12.8631 24.6247 12.8631 25.8642C12.8631 27.1188 13.8774 28.1182 15.1286 28.1182C16.3675 28.1189 17.3798 27.1188 17.3798 25.8642ZM48.0976 25.8642C48.0976 28.1468 46.2409 30 43.9652 30C41.6684 30 39.8295 28.14 39.8295 25.8642C39.8295 23.5919 41.6827 21.736 43.9652 21.736C46.2409 21.736 48.0976 23.5885 48.0976 25.8642ZM46.2205 25.8642C46.2205 24.6247 45.2095 23.6096 43.9659 23.6096C42.708 23.6096 41.7119 24.6247 41.7119 25.8642C41.7119 27.1188 42.7086 28.1182 43.9659 28.1182C45.2089 28.1189 46.2205 27.1188 46.2205 25.8642ZM34.482 0H0V21.1931H34.482V0Z" fill="black"/>
</svg>
