<svg width="52" height="52" viewBox="0 0 52 52" fill="none" xmlns="http://www.w3.org/2000/svg">
<path d="M38 4C39.1046 4 40 3.10457 40 2C40 0.89543 39.1046 0 38 0C36.8954 0 36 0.89543 36 2C36 3.10457 36.8954 4 38 4Z" fill="white"/>
<path d="M50 4C51.1046 4 52 3.10457 52 2C52 0.89543 51.1046 0 50 0C48.8954 0 48 0.89543 48 2C48 3.10457 48.8954 4 50 4Z" fill="white"/>
<path d="M14 16C15.1046 16 16 15.1046 16 14C16 12.8954 15.1046 12 14 12C12.8954 12 12 12.8954 12 14C12 15.1046 12.8954 16 14 16Z" fill="white"/>
<path d="M26 16C27.1046 16 28 15.1046 28 14C28 12.8954 27.1046 12 26 12C24.8954 12 24 12.8954 24 14C24 15.1046 24.8954 16 26 16Z" fill="white"/>
<path d="M38 16C39.1046 16 40 15.1046 40 14C40 12.8954 39.1046 12 38 12C36.8954 12 36 12.8954 36 14C36 15.1046 36.8954 16 38 16Z" fill="white"/>
<path d="M50 16C51.1046 16 52 15.1046 52 14C52 12.8954 51.1046 12 50 12C48.8954 12 48 12.8954 48 14C48 15.1046 48.8954 16 50 16Z" fill="white"/>
<path d="M14 28C15.1046 28 16 27.1046 16 26C16 24.8954 15.1046 24 14 24C12.8954 24 12 24.8954 12 26C12 27.1046 12.8954 28 14 28Z" fill="white"/>
<path d="M26 28C27.1046 28 28 27.1046 28 26C28 24.8954 27.1046 24 26 24C24.8954 24 24 24.8954 24 26C24 27.1046 24.8954 28 26 28Z" fill="white"/>
<path d="M38 28C39.1046 28 40 27.1046 40 26C40 24.8954 39.1046 24 38 24C36.8954 24 36 24.8954 36 26C36 27.1046 36.8954 28 38 28Z" fill="white"/>
<path d="M50 28C51.1046 28 52 27.1046 52 26C52 24.8954 51.1046 24 50 24C48.8954 24 48 24.8954 48 26C48 27.1046 48.8954 28 50 28Z" fill="white"/>
<path d="M2 40C3.10457 40 4 39.1046 4 38C4 36.8954 3.10457 36 2 36C0.89543 36 0 36.8954 0 38C0 39.1046 0.89543 40 2 40Z" fill="white"/>
<path d="M14 40C15.1046 40 16 39.1046 16 38C16 36.8954 15.1046 36 14 36C12.8954 36 12 36.8954 12 38C12 39.1046 12.8954 40 14 40Z" fill="white"/>
<path d="M26 40C27.1046 40 28 39.1046 28 38C28 36.8954 27.1046 36 26 36C24.8954 36 24 36.8954 24 38C24 39.1046 24.8954 40 26 40Z" fill="white"/>
<path d="M38 40C39.1046 40 40 39.1046 40 38C40 36.8954 39.1046 36 38 36C36.8954 36 36 36.8954 36 38C36 39.1046 36.8954 40 38 40Z" fill="white"/>
<path d="M50 40C51.1046 40 52 39.1046 52 38C52 36.8954 51.1046 36 50 36C48.8954 36 48 36.8954 48 38C48 39.1046 48.8954 40 50 40Z" fill="white"/>
<path d="M2 52C3.10457 52 4 51.1046 4 50C4 48.8954 3.10457 48 2 48C0.89543 48 0 48.8954 0 50C0 51.1046 0.89543 52 2 52Z" fill="white"/>
<path d="M14 52C15.1046 52 16 51.1046 16 50C16 48.8954 15.1046 48 14 48C12.8954 48 12 48.8954 12 50C12 51.1046 12.8954 52 14 52Z" fill="white"/>
<path d="M26 52C27.1046 52 28 51.1046 28 50C28 48.8954 27.1046 48 26 48C24.8954 48 24 48.8954 24 50C24 51.1046 24.8954 52 26 52Z" fill="white"/>
<path d="M38 52C39.1046 52 40 51.1046 40 50C40 48.8954 39.1046 48 38 48C36.8954 48 36 48.8954 36 50C36 51.1046 36.8954 52 38 52Z" fill="white"/>
<path d="M50 52C51.1046 52 52 51.1046 52 50C52 48.8954 51.1046 48 50 48C48.8954 48 48 48.8954 48 50C48 51.1046 48.8954 52 50 52Z" fill="white"/>
</svg>
