<svg width="40" height="40" viewBox="0 0 40 40" fill="none" xmlns="http://www.w3.org/2000/svg">
<mask id="mask0_175_1211" style="mask-type:alpha" maskUnits="userSpaceOnUse" x="8" y="11" width="24" height="18">
<path d="M25.9764 18.3334H9.99763C9.07851 18.3334 8.33341 19.0796 8.33341 20.0001C8.33341 20.9206 9.07851 21.6667 9.99763 21.6667H25.9764L22.1549 25.4882C21.504 26.1391 21.504 27.1944 22.1549 27.8453C22.8058 28.4961 23.8611 28.4961 24.5119 27.8453L31.1786 21.1786C31.8295 20.5277 31.8295 19.4724 31.1786 18.8216L24.5119 12.1549C23.8611 11.504 22.8058 11.504 22.1549 12.1549C21.504 12.8058 21.504 13.8611 22.1549 14.5119L25.9764 18.3334Z" fill="white"/>
</mask>
<g mask="url(#mask0_175_1211)">
<path d="M25.9764 18.3334H9.99763C9.07851 18.3334 8.33341 19.0796 8.33341 20.0001C8.33341 20.9206 9.07851 21.6667 9.99763 21.6667H25.9764L22.1549 25.4882C21.504 26.1391 21.504 27.1944 22.1549 27.8453C22.8058 28.4961 23.8611 28.4961 24.5119 27.8453L31.1786 21.1786C31.8295 20.5277 31.8295 19.4724 31.1786 18.8216L24.5119 12.1549C23.8611 11.504 22.8058 11.504 22.1549 12.1549C21.504 12.8058 21.504 13.8611 22.1549 14.5119L25.9764 18.3334Z" fill="black"/>
<path d="M0 0H40V40H0V0Z" fill="black"/>
</g>
</svg>
