<svg width="30" height="30" viewBox="0 0 30 30" fill="none" xmlns="http://www.w3.org/2000/svg">
<g clip-path="url(#clip0_175_1244)">
<path d="M28.2924 4.922C27.8687 4.49788 27.3661 4.2858 26.7858 4.2858H24.6432V2.67859C24.6432 1.94213 24.3807 1.3115 23.8562 0.786949C23.3314 0.262395 22.7011 0 21.9643 0H20.8931C20.1564 0 19.5259 0.262395 19.0013 0.787008C18.4766 1.3115 18.2143 1.94219 18.2143 2.67865V4.28586H11.7861V2.67865C11.7861 1.94219 11.5237 1.31156 10.9991 0.787008C10.4746 0.262395 9.84401 0 9.10726 0H8.03592C7.29934 0 6.66872 0.262395 6.1441 0.787008C5.61961 1.3115 5.35715 1.94219 5.35715 2.67865V4.28586H3.21449C2.634 4.28586 2.13184 4.49794 1.70773 4.92205C1.28362 5.34611 1.07153 5.8485 1.07153 6.42881V27.8574C1.07153 28.4373 1.28362 28.9396 1.70773 29.3639C2.13178 29.7879 2.63394 30.0001 3.21449 30.0001H26.7854C27.3657 30.0001 27.8684 29.788 28.292 29.3639C28.7161 28.9398 28.9283 28.4372 28.9283 27.8574V6.42876C28.9282 5.84826 28.7163 5.34611 28.2924 4.922ZM8.03575 27.8571H3.21449V23.0355H8.03575V27.8571ZM8.03575 21.9643H3.21449V16.6075H8.03575V21.9643ZM8.03575 15.5356H3.21449V10.7144H8.03575V15.5356ZM7.65931 7.87671C7.55324 7.77063 7.50029 7.64533 7.50029 7.50009V2.67883C7.50029 2.53376 7.55324 2.40811 7.65931 2.30221C7.76538 2.19614 7.89068 2.14319 8.03592 2.14319H9.10726C9.25232 2.14319 9.37798 2.19614 9.48387 2.30221C9.58995 2.40817 9.64301 2.53376 9.64301 2.67883V7.50009C9.64301 7.64539 9.58971 7.77069 9.48387 7.87671C9.37792 7.98278 9.2525 8.03573 9.10726 8.03573H8.03592C7.89086 8.03578 7.76538 7.98278 7.65931 7.87671ZM14.4643 27.8571H9.10708V23.0355H14.4643V27.8571ZM14.4643 21.9643H9.10708V16.6075H14.4643V21.9643ZM14.4643 15.5356H9.10708V10.7144H14.4643V15.5356ZM20.8931 27.8571H15.536V23.0355H20.8931V27.8571ZM20.8931 21.9643H15.536V16.6075H20.8931V21.9643ZM20.8931 15.5356H15.536V10.7144H20.8931V15.5356ZM20.5163 7.87671C20.4103 7.77063 20.3576 7.64533 20.3576 7.50009V2.67883C20.3576 2.53376 20.4103 2.40811 20.5163 2.30221C20.6223 2.19614 20.7478 2.14319 20.8931 2.14319H21.9643C22.1096 2.14319 22.235 2.19614 22.3412 2.30221C22.4472 2.40817 22.4999 2.53376 22.4999 2.67883V7.50009C22.4999 7.64539 22.4469 7.77069 22.3412 7.87671C22.2352 7.98278 22.1096 8.03573 21.9643 8.03573H20.8931C20.7479 8.03578 20.6219 7.98278 20.5163 7.87671ZM26.7854 27.8571H21.9639V23.0355H26.7854V27.8571ZM26.7854 21.9643H21.9639V16.6075H26.7854V21.9643ZM26.7854 15.5356H21.9639V10.7144H26.7854V15.5356Z" fill="black"/>
</g>
<defs>
<clipPath id="clip0_175_1244">
<rect width="30" height="30" fill="white"/>
</clipPath>
</defs>
</svg>
