<svg width="30" height="30" viewBox="0 0 30 30" fill="none" xmlns="http://www.w3.org/2000/svg">
<path d="M4.6875 4.6875V5.625V24.375V25.3125H5.625H11.7773L14.3262 27.8613L15 28.5059L15.6738 27.8613L18.2227 25.3125H24.375H25.3125V24.375V5.625V4.6875H24.375H5.625H4.6875ZM6.5625 6.5625H23.4375V23.4375H17.8125H17.4316L17.1387 23.7012L15 25.8398L12.8613 23.7012L12.5684 23.4375H12.1875H6.5625V6.5625ZM9.375 10.3125V12.1875H11.25V10.3125H9.375ZM13.125 10.3125V12.1875H20.625V10.3125H13.125ZM9.375 14.0625V15.9375H11.25V14.0625H9.375ZM13.125 14.0625V15.9375H20.625V14.0625H13.125ZM9.375 17.8125V19.6875H11.25V17.8125H9.375ZM13.125 17.8125V19.6875H20.625V17.8125H13.125Z" fill="black"/>
</svg>
