<svg width="50" height="50" viewBox="0 0 50 50" fill="none" xmlns="http://www.w3.org/2000/svg">
<circle cx="25" cy="25" r="25" fill="#D9D9D9"/>
<g clip-path="url(#clip0_121_120)">
<path d="M25.49 22.8759C26.7827 22.8759 28.0464 22.4925 29.1212 21.7743C30.1961 21.0562 31.0338 20.0354 31.5285 18.8411C32.0232 17.6468 32.1526 16.3327 31.9004 15.0648C31.6482 13.797 31.0257 12.6324 30.1117 11.7183C29.1976 10.8042 28.033 10.1817 26.7652 9.92954C25.4973 9.67735 24.1831 9.80679 22.9889 10.3015C21.7946 10.7962 20.7738 11.6339 20.0556 12.7087C19.3374 13.7836 18.9541 15.0472 18.9541 16.3399C18.9541 18.0733 19.6427 19.7358 20.8684 20.9615C22.0942 22.1872 23.7566 22.8759 25.49 22.8759Z" fill="#231F20"/>
<path d="M35.2941 39.2157C35.7274 39.2157 36.1431 39.0435 36.4495 38.7371C36.7559 38.4307 36.9281 38.0151 36.9281 37.5817C36.9281 34.5482 35.723 31.6389 33.578 29.4939C31.433 27.3489 28.5237 26.1438 25.4902 26.1438C22.4566 26.1438 19.5474 27.3489 17.4023 29.4939C15.2573 31.6389 14.0522 34.5482 14.0522 37.5817C14.0522 38.0151 14.2244 38.4307 14.5308 38.7371C14.8373 39.0435 15.2529 39.2157 15.6862 39.2157H35.2941Z" fill="#231F20"/>
</g>
<defs>
<clipPath id="clip0_121_120">
<rect width="39.2157" height="39.2157" fill="white" transform="translate(5.88232 4.90198)"/>
</clipPath>
</defs>
</svg>
