<svg width="25" height="15" viewBox="0 0 25 15" fill="none" xmlns="http://www.w3.org/2000/svg">
<path d="M24.7502 1.50292L23.4978 0.250589C23.3309 0.083354 23.1387 0 22.9213 0C22.7045 0 22.5124 0.083354 22.3455 0.250589L12.5001 10.0954L2.65522 0.250852C2.48825 0.0836174 2.2961 0.000263079 2.07903 0.000263079C1.86187 0.000263079 1.66971 0.0836174 1.50283 0.250852L0.250589 1.50327C0.0833541 1.67015 0 1.86231 0 2.07947C0 2.29645 0.0836173 2.4886 0.250589 2.65549L11.9239 14.3291C12.0908 14.4961 12.2831 14.5795 12.5001 14.5795C12.7172 14.5795 12.9091 14.4961 13.0759 14.3291L24.7502 2.65549C24.9171 2.48852 25 2.29636 25 2.07947C25 1.86231 24.9171 1.67015 24.7502 1.50292Z" fill="black"/>
</svg>
